<svg class="icon icon-code" viewBox="0 0 106 106" xmlns="http://www.w3.org/2000/svg" xmlns:xlink="http://www.w3.org/1999/xlink">
	<path transform="translate(3 3)" d="
		M20 90 A 10 10 0 0 1 10 80 V 60 A 10 10 0 0 0 0 50 A 10 10 0 0 0 10 40 V 20 A 10 10 0 0 1 20 10 M80 90 A 10 10 0 0 0 90 80 V 60 A 10 10 0 0 1 100 50 A 10 10 0 0 1 90 40 V 20 A 10 10 0 0 0 80 10 M25 50 A 2.5 2.5 0 0 1 30 50 A 2.5 2.5 0 0 1 25 50 M47.5 50 A 2.5 2.5 0 0 1 52.5 50 A 2.5 2.5 0 0 1 47.5 50 M70 50 A 2.5 2.5 0 0 1 75 50 A 2.5 2.5 0 0 1 70 50">
	</path>
</svg>