<?xml version="1.0" encoding="utf-8"?>
<!-- Generator: Adobe Illustrator 22.0.1, SVG Export Plug-In . SVG Version: 6.00 Build 0)  -->
<svg version="1.1" id="Слой_1" xmlns="http://www.w3.org/2000/svg" xmlns:xlink="http://www.w3.org/1999/xlink" x="0px" y="0px"
	 viewBox="0 0 106 106" style="enable-background:new 0 0 106 106;" xml:space="preserve">
<g>
	<path d="M53,106c-23.7,0-43-19.3-43-43V23c0-1.1,0.6-2.2,1.7-2.7l40-20c0.8-0.4,1.8-0.4,2.7,0l40,20c1,0.5,1.7,1.5,1.7,2.7v40
		C96,86.7,76.7,106,53,106z M16,24.9V63c0,20.4,16.6,37,37,37c20.4,0,37-16.6,37-37V24.9L53,6.4L16,24.9z M48,66
		c-0.8,0-1.5-0.3-2.1-0.9l-10-10c-1.2-1.2-1.2-3.1,0-4.2c1.2-1.2,3.1-1.2,4.2,0l7.9,7.9l17.9-17.9c1.2-1.2,3.1-1.2,4.2,0
		c1.2,1.2,1.2,3.1,0,4.2l-20,20C49.5,65.7,48.8,66,48,66z"/>
</g>
</svg>
