<?xml version="1.0" encoding="utf-8"?>
<!-- Generator: Adobe Illustrator 22.0.1, SVG Export Plug-In . SVG Version: 6.00 Build 0)  -->
<svg version="1.1" id="Слой_1" xmlns="http://www.w3.org/2000/svg" xmlns:xlink="http://www.w3.org/1999/xlink" x="0px" y="0px"
	 viewBox="0 0 106 106" style="enable-background:new 0 0 106 106;" xml:space="preserve">
<g>
	<path d="M23,106c-7.2,0-13-5.8-13-13c0-6.1,4.3-11.3,10-12.7V24.2L0.9,5.1c-1.2-1.2-1.2-3.1,0-4.2C2-0.3,4-0.3,5.1,0.9l20,20
		c0.6,0.6,0.9,1.3,0.9,2.1v60c0,1.7-1.3,3-3,3c-3.9,0-7,3.1-7,7s3.1,7,7,7s7-3.1,7-7c0-1.7,1.3-3,3-3h70c1.7,0,3,1.3,3,3s-1.3,3-3,3
		H35.7C34.3,101.7,29.1,106,23,106z M93,86H33c-1.7,0-3-1.3-3-3V33c0-1.7,1.3-3,3-3h60c1.7,0,3,1.3,3,3v50C96,84.7,94.7,86,93,86z
		 M36,80h54V36H36V80z M73,71c-1.7,0-3-1.3-3-3V48c0-1.7,1.3-3,3-3s3,1.3,3,3v20C76,69.7,74.7,71,73,71z M63,71c-1.7,0-3-1.3-3-3V48
		c0-1.7,1.3-3,3-3s3,1.3,3,3v20C66,69.7,64.7,71,63,71z M53,71c-1.7,0-3-1.3-3-3V48c0-1.7,1.3-3,3-3c1.7,0,3,1.3,3,3v20
		C56,69.7,54.7,71,53,71z"/>
</g>
</svg>
