<?xml version="1.0" encoding="utf-8"?>
<!-- Generator: Adobe Illustrator 22.0.1, SVG Export Plug-In . SVG Version: 6.00 Build 0)  -->
<svg version="1.1" id="Слой_1" xmlns="http://www.w3.org/2000/svg" xmlns:xlink="http://www.w3.org/1999/xlink" x="0px" y="0px"
	 viewBox="0 0 106 106" style="enable-background:new 0 0 106 106;" xml:space="preserve">
<g>
	<path d="M53,106c-0.5,0-1.1-0.1-1.5-0.4l-50-30C0.6,75,0,74.1,0,73s0.6-2,1.5-2.6l10-6c1.4-0.9,3.3-0.4,4.1,1
		c0.9,1.4,0.4,3.3-1,4.1L8.8,73L53,99.5L97.2,73l-5.7-3.4c-1.4-0.9-1.9-2.7-1-4.1c0.9-1.4,2.7-1.9,4.1-1l10,6
		c0.9,0.5,1.5,1.5,1.5,2.6s-0.6,2-1.5,2.6l-50,30C54.1,105.9,53.5,106,53,106z M53,86c-0.5,0-1.1-0.1-1.5-0.4l-50-30
		C0.6,55,0,54.1,0,53c0-1.1,0.6-2,1.5-2.6l10-6c1.4-0.9,3.3-0.4,4.1,1c0.9,1.4,0.4,3.3-1,4.1L8.8,53L53,79.5L97.2,53l-5.7-3.4
		c-1.4-0.9-1.9-2.7-1-4.1c0.9-1.4,2.7-1.9,4.1-1l10,6c0.9,0.5,1.5,1.5,1.5,2.6c0,1.1-0.6,2-1.5,2.6l-50,30C54.1,85.9,53.5,86,53,86z
		 M53,66c-0.5,0-1.1-0.1-1.5-0.4l-50-30C0.6,35,0,34.1,0,33s0.6-2,1.5-2.6l50-30c1-0.6,2.1-0.6,3.1,0l50,30c0.9,0.5,1.5,1.5,1.5,2.6
		s-0.6,2-1.5,2.6l-50,30C54.1,65.9,53.5,66,53,66z M8.8,33L53,59.5L97.2,33L53,6.5L8.8,33z"/>
</g>
</svg>
