<?xml version="1.0" encoding="utf-8"?>
<!-- Generator: Adobe Illustrator 22.0.1, SVG Export Plug-In . SVG Version: 6.00 Build 0)  -->
<svg version="1.1" id="Слой_1" xmlns="http://www.w3.org/2000/svg" xmlns:xlink="http://www.w3.org/1999/xlink" x="0px" y="0px"
	 viewBox="0 0 106 106" style="enable-background:new 0 0 106 106;" xml:space="preserve">
<g>
	<path d="M53,106C23.8,106,0,82.2,0,53S23.8,0,53,0c29.2,0,53,23.8,53,53v15c0,8.5-7,15.5-15.5,15.5c-7.8,0-14.3-5.8-15.4-13.4
		C70,76.7,62,81,53,81c-15.4,0-28-12.6-28-28c0-15.4,12.6-28,28-28s28,12.6,28,28v15c0,5.2,4.3,9.5,9.5,9.5s9.5-4.3,9.5-9.5V53
		c0-25.9-21.1-47-47-47S6,27.1,6,53c0,25.9,21.1,47,47,47c1.7,0,3,1.3,3,3S54.7,106,53,106z M53,31c-12.1,0-22,9.9-22,22
		c0,12.1,9.9,22,22,22s22-9.9,22-22C75,40.9,65.1,31,53,31z"/>
</g>
</svg>
