<?xml version="1.0" encoding="utf-8"?>
<!-- Generator: Adobe Illustrator 22.0.1, SVG Export Plug-In . SVG Version: 6.00 Build 0)  -->
<svg version="1.1" id="Слой_1" xmlns="http://www.w3.org/2000/svg" xmlns:xlink="http://www.w3.org/1999/xlink" x="0px" y="0px"
	 viewBox="0 0 106 106" style="enable-background:new 0 0 106 106;" xml:space="preserve">
<g>
	<path d="M103,96H3c-1.7,0-3-1.3-3-3V23c0-1.7,1.3-3,3-3h28.8l9.1-9.1c0.6-0.6,1.3-0.9,2.1-0.9h20c0.8,0,1.6,0.3,2.1,0.9l9.1,9.1
		H103c1.7,0,3,1.3,3,3v70C106,94.7,104.7,96,103,96z M6,90h94V26H73c-0.8,0-1.6-0.3-2.1-0.9L61.8,16H44.2l-9.1,9.1
		C34.6,25.7,33.8,26,33,26H6V90z M53,81c-12.7,0-23-10.3-23-23s10.3-23,23-23c12.7,0,23,10.3,23,23S65.7,81,53,81z M53,41
		c-9.4,0-17,7.6-17,17s7.6,17,17,17s17-7.6,17-17S62.4,41,53,41z"/>
</g>
</svg>
