<?xml version="1.0" encoding="utf-8"?>
<!-- Generator: Adobe Illustrator 22.0.1, SVG Export Plug-In . SVG Version: 6.00 Build 0)  -->
<svg version="1.1" id="Слой_1" xmlns="http://www.w3.org/2000/svg" xmlns:xlink="http://www.w3.org/1999/xlink" x="0px" y="0px"
	 viewBox="0 0 106 106" style="enable-background:new 0 0 106 106;" xml:space="preserve">
<g>
	<path d="M103,106H3c-0.9,0-1.8-0.4-2.4-1.1c-0.6-0.7-0.8-1.7-0.6-2.5C4,85.5,15.9,71.7,31.9,65.2c0.7-0.3,1.6-0.3,2.3,0
		c0.7,0.3,1.3,0.9,1.6,1.6l6.6,16.4l2.7-11c0.3-1.3,1.5-2.3,2.9-2.3h10c1.4,0,2.6,0.9,2.9,2.3l2.8,11l6.6-16.4
		c0.3-0.7,0.9-1.3,1.6-1.6c0.7-0.3,1.6-0.3,2.3,0c16,6.4,27.9,20.3,31.8,37.1c0.2,0.9,0,1.8-0.6,2.5C104.8,105.6,103.9,106,103,106z
		 M6.9,100h92.1c-3.9-12.3-12.8-22.4-24.4-28l-8.8,22.1c-0.5,1.2-1.7,2-3,1.9c-1.3-0.1-2.4-1-2.7-2.3L55.7,76h-5.3l-4.4,17.7
		c-0.3,1.3-1.4,2.2-2.7,2.3c-1.3,0.1-2.5-0.7-3-1.9L31.4,72C19.7,77.6,10.9,87.7,6.9,100z M53,66c-18.2,0-33-14.8-33-33S34.8,0,53,0
		s33,14.8,33,33S71.2,66,53,66z M53,6C38.1,6,26,18.1,26,33c0,14.9,12.1,27,27,27s27-12.1,27-27C80,18.1,67.9,6,53,6z"/>
</g>
</svg>
