<?xml version="1.0" encoding="utf-8"?>
<!-- Generator: Adobe Illustrator 22.0.1, SVG Export Plug-In . SVG Version: 6.00 Build 0)  -->
<svg version="1.1" id="Слой_1" xmlns="http://www.w3.org/2000/svg" xmlns:xlink="http://www.w3.org/1999/xlink" x="0px" y="0px"
	 viewBox="0 0 106 106" style="enable-background:new 0 0 106 106;" xml:space="preserve">
<g>
	<path d="M93,106c-4,0-7.6-1.8-10-4.7c-2.4,2.9-6,4.7-10,4.7s-7.6-1.8-10-4.7c-2.4,2.9-6,4.7-10,4.7s-7.6-1.8-10-4.7
		c-2.4,2.9-6,4.7-10,4.7s-7.6-1.8-10-4.7c-2.4,2.9-6,4.7-10,4.7c-7.2,0-13-5.8-13-13c0-1.7,1.3-3,3-3s3,1.3,3,3c0,3.9,3.1,7,7,7
		s7-3.1,7-7c0-1.7,1.3-3,3-3s3,1.3,3,3c0,3.9,3.1,7,7,7s7-3.1,7-7c0-1.7,1.3-3,3-3s3,1.3,3,3c0,3.9,3.1,7,7,7c3.9,0,7-3.1,7-7
		c0-1.7,1.3-3,3-3s3,1.3,3,3c0,3.9,3.1,7,7,7s7-3.1,7-7c0-1.7,1.3-3,3-3s3,1.3,3,3c0,3.9,3.1,7,7,7s7-3.1,7-7c0-1.7,1.3-3,3-3
		s3,1.3,3,3C106,100.2,100.2,106,93,106z M93,86c-4,0-7.6-1.8-10-4.7c-2.4,2.9-6,4.7-10,4.7s-7.6-1.8-10-4.7c-2.4,2.9-6,4.7-10,4.7
		s-7.6-1.8-10-4.7c-2.4,2.9-6,4.7-10,4.7s-7.6-1.8-10-4.7c-2.4,2.9-6,4.7-10,4.7C5.8,86,0,80.2,0,73c0-1.7,1.3-3,3-3s3,1.3,3,3
		c0,3.9,3.1,7,7,7s7-3.1,7-7c0-1.7,1.3-3,3-3s3,1.3,3,3c0,3.9,3.1,7,7,7s7-3.1,7-7c0-1.7,1.3-3,3-3s3,1.3,3,3c0,3.9,3.1,7,7,7
		c3.9,0,7-3.1,7-7c0-1.7,1.3-3,3-3s3,1.3,3,3c0,3.9,3.1,7,7,7s7-3.1,7-7c0-1.7,1.3-3,3-3s3,1.3,3,3c0,3.9,3.1,7,7,7s7-3.1,7-7
		c0-1.7,1.3-3,3-3s3,1.3,3,3C106,80.2,100.2,86,93,86z M83,66c-1.7,0-3-1.3-3-3v-7H26v7c0,1.7-1.3,3-3,3s-3-1.3-3-3V13
		c0-7.2,5.8-13,13-13c1.7,0,3,1.3,3,3s-1.3,3-3,3c-3.9,0-7,3.1-7,7v7h54v-7c0-7.2,5.8-13,13-13c1.7,0,3,1.3,3,3s-1.3,3-3,3
		c-3.9,0-7,3.1-7,7v50C86,64.7,84.7,66,83,66z M26,50h54v-9H26V50z M26,35h54v-9H26V35z"/>
</g>
</svg>
