<?xml version="1.0" encoding="utf-8"?>
<!-- Generator: Adobe Illustrator 22.0.1, SVG Export Plug-In . SVG Version: 6.00 Build 0)  -->
<svg version="1.1" id="Слой_1" xmlns="http://www.w3.org/2000/svg" xmlns:xlink="http://www.w3.org/1999/xlink" x="0px" y="0px"
	 viewBox="0 0 106 106" style="enable-background:new 0 0 106 106;" xml:space="preserve">
<g>
	<path d="M93,106H13c-1.7,0-3-1.3-3-3s1.3-3,3-3h7V13c0-1.7,1.3-3,3-3h7V3c0-1.7,1.3-3,3-3h40c1.7,0,3,1.3,3,3v7h7c1.7,0,3,1.3,3,3
		v87h7c1.7,0,3,1.3,3,3S94.7,106,93,106z M26,100h54V16H26V100z M36,10h34V6H36V10z M69,96H59c-1.7,0-3-1.3-3-3V83c0-1.7,1.3-3,3-3
		h10c1.7,0,3,1.3,3,3v10C72,94.7,70.7,96,69,96z M62,90h4v-4h-4V90z M46,96H36c-1.7,0-3-1.3-3-3V83c0-1.7,1.3-3,3-3h10
		c1.7,0,3,1.3,3,3v10C49,94.7,47.7,96,46,96z M39,90h4v-4h-4V90z M69,76H59c-1.7,0-3-1.3-3-3V63c0-1.7,1.3-3,3-3h10c1.7,0,3,1.3,3,3
		v10C72,74.7,70.7,76,69,76z M62,70h4v-4h-4V70z M46,76H36c-1.7,0-3-1.3-3-3V63c0-1.7,1.3-3,3-3h10c1.7,0,3,1.3,3,3v10
		C49,74.7,47.7,76,46,76z M39,70h4v-4h-4V70z M69,56H59c-1.7,0-3-1.3-3-3V43c0-1.7,1.3-3,3-3h10c1.7,0,3,1.3,3,3v10
		C72,54.7,70.7,56,69,56z M62,50h4v-4h-4V50z M46,56H36c-1.7,0-3-1.3-3-3V43c0-1.7,1.3-3,3-3h10c1.7,0,3,1.3,3,3v10
		C49,54.7,47.7,56,46,56z M39,50h4v-4h-4V50z M69,36H59c-1.7,0-3-1.3-3-3V23c0-1.7,1.3-3,3-3h10c1.7,0,3,1.3,3,3v10
		C72,34.7,70.7,36,69,36z M62,30h4v-4h-4V30z M46,36H36c-1.7,0-3-1.3-3-3V23c0-1.7,1.3-3,3-3h10c1.7,0,3,1.3,3,3v10
		C49,34.7,47.7,36,46,36z M39,30h4v-4h-4V30z"/>
</g>
</svg>
