<?xml version="1.0" encoding="utf-8"?>
<!-- Generator: Adobe Illustrator 22.0.1, SVG Export Plug-In . SVG Version: 6.00 Build 0)  -->
<svg version="1.1" id="Слой_1" xmlns="http://www.w3.org/2000/svg" xmlns:xlink="http://www.w3.org/1999/xlink" x="0px" y="0px"
	 viewBox="0 0 106 106" style="enable-background:new 0 0 106 106;" xml:space="preserve">
<g>
	<path d="M103,96H3c-1.7,0-3-1.3-3-3V13c0-1.7,1.3-3,3-3h100c1.7,0,3,1.3,3,3v19.9c0,0,0,0.1,0,0.1v60C106,94.7,104.7,96,103,96z
		 M6,90h94V38.3L54.5,65.6c-1,0.6-2.1,0.6-3.1,0L6,38.3V90z M6,31.3l47,28.2l47-28.2V16H6V31.3z"/>
</g>
</svg>
