<?xml version="1.0" encoding="utf-8"?>
<!-- Generator: Adobe Illustrator 22.0.1, SVG Export Plug-In . SVG Version: 6.00 Build 0)  -->
<svg version="1.1" id="Слой_1" xmlns="http://www.w3.org/2000/svg" xmlns:xlink="http://www.w3.org/1999/xlink" x="0px" y="0px"
	 viewBox="0 0 106 106" style="enable-background:new 0 0 106 106;" xml:space="preserve">
<g>
	<path d="M73,96H43c-1.7,0-3-1.3-3-3s1.3-3,3-3h7v-4H36v7c0,1.7-1.3,3-3,3H3c-1.7,0-3-1.3-3-3V43c0-1.7,1.3-3,3-3h7V13
		c0-1.7,1.3-3,3-3h90c1.7,0,3,1.3,3,3v70c0,1.7-1.3,3-3,3H66v4h7c1.7,0,3,1.3,3,3S74.7,96,73,96z M56,90h4v-4h-4V90z M6,90h24V46H6
		V90z M63,80h37v-4H36v4H63z M36,70h64V16H16v24h17c1.7,0,3,1.3,3,3V70z"/>
</g>
</svg>
