<?xml version="1.0" encoding="utf-8"?>
<!-- Generator: Adobe Illustrator 22.0.1, SVG Export Plug-In . SVG Version: 6.00 Build 0)  -->
<svg version="1.1" id="Слой_1" xmlns="http://www.w3.org/2000/svg" xmlns:xlink="http://www.w3.org/1999/xlink" x="0px" y="0px"
	 viewBox="0 0 106 106" style="enable-background:new 0 0 106 106;" xml:space="preserve">
<g>
	<path d="M93,96H63c-1.7,0-3-1.3-3-3V33c0-12.7,10.3-23,23-23c1.7,0,3,1.3,3,3s-1.3,3-3,3c-9.4,0-17,7.6-17,17v27h27
		c1.7,0,3,1.3,3,3v30C96,94.7,94.7,96,93,96z M66,90h24V66H66V90z M43,96H13c-1.7,0-3-1.3-3-3V33c0-12.7,10.3-23,23-23
		c1.7,0,3,1.3,3,3s-1.3,3-3,3c-9.4,0-17,7.6-17,17v27h27c1.7,0,3,1.3,3,3v30C46,94.7,44.7,96,43,96z M16,90h24V66H16V90z"/>
</g>
</svg>
