<?xml version="1.0" encoding="utf-8"?>
<!-- Generator: Adobe Illustrator 22.0.1, SVG Export Plug-In . SVG Version: 6.00 Build 0)  -->
<svg version="1.1" id="Слой_1" xmlns="http://www.w3.org/2000/svg" xmlns:xlink="http://www.w3.org/1999/xlink" x="0px" y="0px"
	 viewBox="0 0 106 106" style="enable-background:new 0 0 106 106;" xml:space="preserve">
<g>
	<path d="M53,106C23.8,106,0,82.2,0,53c0,0,0,0,0,0c0,0,0,0,0,0c0.2-11.7,4.1-22.9,11.3-32H3c-1.7,0-3-1.3-3-3s1.3-3,3-3h15
		c0,0,0,0,0.1,0c0,0,0,0,0,0c0,0,0,0,0,0c0.4,0,0.7,0.1,1.1,0.2c0.4,0.1,0.7,0.4,1,0.7c0.3,0.3,0.5,0.6,0.6,1S21,17.6,21,18v15
		c0,1.7-1.3,3-3,3s-3-1.3-3-3v-7c-5.7,7.8-8.9,17.1-9,27c0,25.9,21.1,47,47,47c25.9,0,47-21.1,47-47c0-25.9-21-47-46.9-47
		c-5.5,0.3-10.8,1.6-15.9,3.8c-1.5,0.7-3.3,0-3.9-1.6c-0.7-1.5,0-3.3,1.6-3.9c5.7-2.5,11.8-3.9,18-4.2c0.1,0,0.1,0,0.2,0
		c29.2,0,53,23.8,53,53S82.2,106,53,106z M73,76c-0.8,0-1.5-0.3-2.1-0.9l-20-20c0,0,0,0-0.1-0.1c-0.3-0.3-0.5-0.6-0.6-0.9
		C50.1,53.8,50,53.4,50,53V23c0-1.7,1.3-3,3-3c1.7,0,3,1.3,3,3v28.8l19.1,19.1c1.2,1.2,1.2,3.1,0,4.2C74.5,75.7,73.8,76,73,76z"/>
</g>
</svg>
