<?xml version="1.0" encoding="utf-8"?>
<!-- Generator: Adobe Illustrator 22.0.1, SVG Export Plug-In . SVG Version: 6.00 Build 0)  -->
<svg version="1.1" id="Слой_1" xmlns="http://www.w3.org/2000/svg" xmlns:xlink="http://www.w3.org/1999/xlink" x="0px" y="0px"
	 viewBox="0 0 106 106" style="enable-background:new 0 0 106 106;" xml:space="preserve">
<g>
	<path d="M93,106H63c-1.7,0-3-1.3-3-3V76H46v27c0,1.7-1.3,3-3,3H13c-1.7,0-3-1.3-3-3V56H3c-1.2,0-2.3-0.7-2.8-1.9
		C-0.2,53,0,51.7,0.9,50.9L20,31.8V13c0-1.7,1.3-3,3-3h10c1.7,0,3,1.3,3,3v2.8L50.9,0.9c1.2-1.2,3.1-1.2,4.2,0l50,50
		c0.9,0.9,1.1,2.1,0.7,3.3c-0.5,1.1-1.6,1.9-2.8,1.9h-7v47C96,104.7,94.7,106,93,106z M66,100h24V53c0-1.7,1.3-3,3-3h2.8L53,7.2
		L35.1,25.1c-0.9,0.9-2.1,1.1-3.3,0.7C30.7,25.3,30,24.2,30,23v-7h-4v17c0,0.8-0.3,1.6-0.9,2.1L10.2,50H13c1.7,0,3,1.3,3,3v47h24V73
		c0-1.7,1.3-3,3-3h20c1.7,0,3,1.3,3,3V100z"/>
</g>
</svg>
