<?xml version="1.0" encoding="utf-8"?>
<!-- Generator: Adobe Illustrator 22.0.1, SVG Export Plug-In . SVG Version: 6.00 Build 0)  -->
<svg version="1.1" id="Слой_1" xmlns="http://www.w3.org/2000/svg" xmlns:xlink="http://www.w3.org/1999/xlink" x="0px" y="0px"
	 viewBox="0 0 106 106" style="enable-background:new 0 0 106 106;" xml:space="preserve">
<g>
	<path d="M103,96H3c-1.7,0-3-1.3-3-3V23c0-1.7,1.3-3,3-3h37v-7c0-1.7,1.3-3,3-3h20c1.7,0,3,1.3,3,3v7h37c1.7,0,3,1.3,3,3v70
		C106,94.7,104.7,96,103,96z M6,90h94V56H61v2c0,1.7-1.3,3-3,3H48c-1.7,0-3-1.3-3-3v-2H6V90z M51,55h4v-4h-4V55z M61,50h39V26H6v24
		h39v-2c0-1.7,1.3-3,3-3h10c1.7,0,3,1.3,3,3V50z M46,20h14v-4H46V20z"/>
</g>
</svg>
