<?xml version="1.0" encoding="utf-8"?>
<!-- Generator: Adobe Illustrator 22.0.1, SVG Export Plug-In . SVG Version: 6.00 Build 0)  -->
<svg version="1.1" id="Слой_1" xmlns="http://www.w3.org/2000/svg" xmlns:xlink="http://www.w3.org/1999/xlink" x="0px" y="0px"
	 viewBox="0 0 106 106" style="enable-background:new 0 0 106 106;" xml:space="preserve">
<g>
	<path d="M53,106c-0.9,0-1.7-0.4-2.3-1L22.8,73c-8-8.2-12.3-19-12.2-30.5c0.1-11.5,4.7-22.2,12.9-30.3C31.4,4.5,41.9,0.2,53,0
		c23.8,0.3,42.8,19.9,42.5,43.6C95.3,54.7,90.9,65.1,83.2,73L55.3,105C54.7,105.6,53.9,106,53,106z M53,6
		c-9.5,0.1-18.5,3.9-25.3,10.6c-7.1,6.9-11,16.2-11.1,26.1c-0.1,9.9,3.7,19.2,10.6,26.3c0,0,0.1,0.1,0.1,0.1L53,98.4L78.7,69
		c0,0,0.1-0.1,0.1-0.1c6.7-6.8,10.4-15.8,10.6-25.4C89.7,23.1,73.4,6.3,53,6z M53,56c-7.2,0-13-5.8-13-13s5.8-13,13-13
		c7.2,0,13,5.8,13,13S60.2,56,53,56z M53,36c-3.9,0-7,3.1-7,7s3.1,7,7,7c3.9,0,7-3.1,7-7S56.9,36,53,36z"/>
</g>
</svg>
