<?xml version="1.0" encoding="utf-8"?>
<!-- Generator: Adobe Illustrator 22.0.1, SVG Export Plug-In . SVG Version: 6.00 Build 0)  -->
<svg version="1.1" id="Слой_1" xmlns="http://www.w3.org/2000/svg" xmlns:xlink="http://www.w3.org/1999/xlink" x="0px" y="0px"
	 viewBox="0 0 106 106" style="enable-background:new 0 0 106 106;" xml:space="preserve">
<g>
	<path d="M93,96c-1.7,0-3-1.3-3-3v-7H16v7c0,1.7-1.3,3-3,3s-3-1.3-3-3v-7H3c-1.7,0-3-1.3-3-3V63c0,0,0,0,0,0c0,0,0,0,0,0
		c0,0,0,0,0,0c0-0.5,0.1-1,0.3-1.4L10,42.3V13c0-1.7,1.3-3,3-3h80c1.7,0,3,1.3,3,3v29.3l9.7,19.3c0.2,0.4,0.3,0.9,0.3,1.4
		c0,0,0,0,0,0c0,0,0,0,0,0c0,0,0,0,0,0v20c0,1.7-1.3,3-3,3h-7v7C96,94.7,94.7,96,93,96z M93,80h7V66H6v14H93z M7.9,60h90.3l-7-14
		H14.9L7.9,60z M81,40h9V16H16v24h9V23c0-1.7,1.3-3,3-3h20c1.7,0,3,1.3,3,3v17h4V23c0-1.7,1.3-3,3-3h20c1.7,0,3,1.3,3,3V40z M61,40
		h14V26H61V40z M31,40h14V26H31V40z"/>
</g>
</svg>
