<?xml version="1.0" encoding="utf-8"?>
<!-- Generator: Adobe Illustrator 22.0.1, SVG Export Plug-In . SVG Version: 6.00 Build 0)  -->
<svg version="1.1" id="Слой_1" xmlns="http://www.w3.org/2000/svg" xmlns:xlink="http://www.w3.org/1999/xlink" x="0px" y="0px"
	 viewBox="0 0 106 106" style="enable-background:new 0 0 106 106;" xml:space="preserve">
<g>
	<path d="M103,106H23c-1.7,0-3-1.3-3-3V76h-7C5.8,76,0,70.2,0,63s5.8-13,13-13h7V23c0-1.7,1.3-3,3-3h27v-7c0-7.2,5.8-13,13-13
		s13,5.8,13,13v7h27c1.7,0,3,1.3,3,3v30c0,1.7-1.3,3-3,3H93c-3.9,0-7,3.1-7,7s3.1,7,7,7h10c1.7,0,3,1.3,3,3v30
		C106,104.7,104.7,106,103,106z M26,100h74V76h-7c-7.2,0-13-5.8-13-13s5.8-13,13-13h7V26H73c-1.7,0-3-1.3-3-3V13c0-3.9-3.1-7-7-7
		s-7,3.1-7,7v10c0,1.7-1.3,3-3,3H26v27c0,1.7-1.3,3-3,3H13c-3.9,0-7,3.1-7,7s3.1,7,7,7h10c1.7,0,3,1.3,3,3V100z"/>
</g>
</svg>
