<?xml version="1.0" encoding="utf-8"?>
<!-- Generator: Adobe Illustrator 22.0.1, SVG Export Plug-In . SVG Version: 6.00 Build 0)  -->
<svg version="1.1" id="Слой_1" xmlns="http://www.w3.org/2000/svg" xmlns:xlink="http://www.w3.org/1999/xlink" x="0px" y="0px"
	 viewBox="0 0 106 106" style="enable-background:new 0 0 106 106;" xml:space="preserve">
<g>
	<path d="M83,96c-1.7,0-3-1.3-3-3s1.3-3,3-3c3.9,0,7-3.1,7-7V63c0-4,1.8-7.6,4.7-10c-2.9-2.4-4.7-6-4.7-10V23c0-3.9-3.1-7-7-7
		c-1.7,0-3-1.3-3-3s1.3-3,3-3c7.2,0,13,5.8,13,13v20c0,3.9,3.1,7,7,7c1.7,0,3,1.3,3,3c0,1.7-1.3,3-3,3c-3.9,0-7,3.1-7,7v20
		C96,90.2,90.2,96,83,96z M23,96c-7.2,0-13-5.8-13-13V63c0-3.9-3.1-7-7-7c-1.7,0-3-1.3-3-3c0-1.7,1.3-3,3-3c3.9,0,7-3.1,7-7V23
		c0-7.2,5.8-13,13-13c1.7,0,3,1.3,3,3s-1.3,3-3,3c-3.9,0-7,3.1-7,7v20c0,4-1.8,7.6-4.7,10c2.9,2.4,4.7,6,4.7,10v20c0,3.9,3.1,7,7,7
		c1.7,0,3,1.3,3,3S24.7,96,23,96z M75.5,58.5c-3,0-5.5-2.5-5.5-5.5c0-3,2.5-5.5,5.5-5.5S81,50,81,53C81,56,78.5,58.5,75.5,58.5z
		 M75.5,52.5c-0.3,0-0.5,0.2-0.5,0.5s0.2,0.5,0.5,0.5S76,53.3,76,53S75.8,52.5,75.5,52.5z M53,58.5c-3,0-5.5-2.5-5.5-5.5
		c0-3,2.5-5.5,5.5-5.5c3,0,5.5,2.5,5.5,5.5C58.5,56,56,58.5,53,58.5z M53,52.5c-0.3,0-0.5,0.2-0.5,0.5s0.2,0.5,0.5,0.5
		s0.5-0.2,0.5-0.5S53.3,52.5,53,52.5z M30.5,58.5c-3,0-5.5-2.5-5.5-5.5c0-3,2.5-5.5,5.5-5.5S36,50,36,53C36,56,33.5,58.5,30.5,58.5z
		 M30.5,52.5c-0.3,0-0.5,0.2-0.5,0.5s0.2,0.5,0.5,0.5S31,53.3,31,53S30.8,52.5,30.5,52.5z"/>
</g>
</svg>
