<?xml version="1.0" encoding="utf-8"?>
<!-- Generator: Adobe Illustrator 22.0.1, SVG Export Plug-In . SVG Version: 6.00 Build 0)  -->
<svg version="1.1" id="Слой_1" xmlns="http://www.w3.org/2000/svg" xmlns:xlink="http://www.w3.org/1999/xlink" x="0px" y="0px"
	 viewBox="0 0 106 106" style="enable-background:new 0 0 106 106;" xml:space="preserve">
<g>
	<path d="M96,106H10V50h15V22.7l0.1-0.3C27.7,9.3,39.2,0,52.5,0c0.2,0,0.3,0,0.5,0c13.5-0.2,25.2,9.2,27.9,22.4l0.1,0.3V50h15V106z
		 M16,100h74V56H16V100z M31,50h44V23.3C72.8,13.1,63.6,5.8,53.1,6L53,6l-0.1,0C42.4,5.8,33.2,13.1,31,23.3V50z M53,91
		c-4.4,0-8-3.6-8-8V73c0-4.4,3.6-8,8-8s8,3.6,8,8v10C61,87.4,57.4,91,53,91z M53,71c-1.1,0-2,0.9-2,2v10c0,1.1,0.9,2,2,2
		c1.1,0,2-0.9,2-2V73C55,71.9,54.1,71,53,71z"/>
</g>
</svg>
