<?xml version="1.0" encoding="utf-8"?>
<!-- Generator: Adobe Illustrator 22.0.1, SVG Export Plug-In . SVG Version: 6.00 Build 0)  -->
<svg version="1.1" id="Слой_1" xmlns="http://www.w3.org/2000/svg" xmlns:xlink="http://www.w3.org/1999/xlink" x="0px" y="0px"
	 viewBox="0 0 106 106" style="enable-background:new 0 0 106 106;" xml:space="preserve">
<g>
	<path d="M103,106H48c-1.7,0-3-1.3-3-3s1.3-3,3-3h12v-7c0-1.7,1.3-3,3-3s3,1.3,3,3v7h34V56H66v7c0,1.7-1.3,3-3,3s-3-1.3-3-3V43
		c0-1.7,1.3-3,3-3s3,1.3,3,3v7h34V6H66v7c0,1.7-1.3,3-3,3s-3-1.3-3-3V6H6v44h27c1.7,0,3,1.3,3,3c0,1.7-1.3,3-3,3H6v44h12
		c1.7,0,3,1.3,3,3s-1.3,3-3,3H3c-1.7,0-3-1.3-3-3V3c0-1.7,1.3-3,3-3h100c1.7,0,3,1.3,3,3v100C106,104.7,104.7,106,103,106z"/>
</g>
</svg>
