<?xml version="1.0" encoding="utf-8"?>
<!-- Generator: Adobe Illustrator 22.0.1, SVG Export Plug-In . SVG Version: 6.00 Build 0)  -->
<svg version="1.1" id="Слой_1" xmlns="http://www.w3.org/2000/svg" xmlns:xlink="http://www.w3.org/1999/xlink" x="0px" y="0px"
	 viewBox="0 0 106 106" style="enable-background:new 0 0 106 106;" xml:space="preserve">
<g>
	<path d="M83,96c-0.6,0-1.2-0.2-1.7-0.5L52.1,76H3c-1.7,0-3-1.3-3-3V13c0-1.7,1.3-3,3-3h100c1.7,0,3,1.3,3,3v60c0,1.7-1.3,3-3,3
		H77.9l7.8,15.7c0.6,1.2,0.3,2.7-0.7,3.6C84.4,95.7,83.7,96,83,96z M6,70h47c0.6,0,1.2,0.2,1.7,0.5l20.6,13.7l-4.9-9.9
		c-0.5-0.9-0.4-2,0.1-2.9S72,70,73,70h27V16H6V70z M73,48.5c-3,0-5.5-2.5-5.5-5.5s2.5-5.5,5.5-5.5s5.5,2.5,5.5,5.5S76,48.5,73,48.5z
		 M73,42.5c-0.3,0-0.5,0.2-0.5,0.5s0.2,0.5,0.5,0.5s0.5-0.2,0.5-0.5S73.3,42.5,73,42.5z M53,48.5c-3,0-5.5-2.5-5.5-5.5
		s2.5-5.5,5.5-5.5c3,0,5.5,2.5,5.5,5.5S56,48.5,53,48.5z M53,42.5c-0.3,0-0.5,0.2-0.5,0.5s0.2,0.5,0.5,0.5s0.5-0.2,0.5-0.5
		S53.3,42.5,53,42.5z M33,48.5c-3,0-5.5-2.5-5.5-5.5s2.5-5.5,5.5-5.5s5.5,2.5,5.5,5.5S36,48.5,33,48.5z M33,42.5
		c-0.3,0-0.5,0.2-0.5,0.5s0.2,0.5,0.5,0.5s0.5-0.2,0.5-0.5S33.3,42.5,33,42.5z"/>
</g>
</svg>
