<?xml version="1.0" encoding="utf-8"?>
<!-- Generator: Adobe Illustrator 22.0.1, SVG Export Plug-In . SVG Version: 6.00 Build 0)  -->
<svg version="1.1" id="Слой_1" xmlns="http://www.w3.org/2000/svg" xmlns:xlink="http://www.w3.org/1999/xlink" x="0px" y="0px"
	 viewBox="0 0 106 106" style="enable-background:new 0 0 106 106;" xml:space="preserve">
<g>
	<path d="M53,106c-0.7,0-1.3-0.2-1.8-0.6l0,0c0,0,0,0,0,0c0,0,0,0,0,0h0c-0.1-0.1-0.1-0.1-0.2-0.2c0,0,0,0,0,0
		c-0.2-0.2-0.3-0.3-0.5-0.5l-50-70c-0.7-0.9-0.7-2.1-0.2-3.1c0,0,0-0.1,0.1-0.1l17-30C17.9,0.6,18.9,0,20,0h33c0,0,0,0,0,0h33
		c1.1,0,2.1,0.6,2.6,1.5l17,30c0.6,1,0.5,2.3-0.2,3.2l-50,70c-0.1,0.2-0.2,0.3-0.4,0.5c0,0,0,0,0,0c0,0,0,0,0,0
		c-0.1,0.1-0.2,0.2-0.3,0.3c0,0,0,0,0,0l0,0C54.2,105.8,53.7,106,53,106C53,106,53,106,53,106z M39.8,36l13.1,53.9L65.2,36H39.8z
		 M71.4,36L59.3,89.1L97.2,36H71.4z M8.8,36l37.6,52.6L33.6,36H8.8z M74.1,30h23.7L86,9.1L74.1,30z M41.1,30H64L52.9,9.2L41.1,30z
		 M8.1,30H31L19.9,9.2L8.1,30z M58,6l11.1,20.8L80.9,6H58z M25,6l11.1,20.8L47.9,6H25z"/>
</g>
</svg>
