<?xml version="1.0" encoding="utf-8"?>
<!-- Generator: Adobe Illustrator 22.0.1, SVG Export Plug-In . SVG Version: 6.00 Build 0)  -->
<svg version="1.1" id="Слой_1" xmlns="http://www.w3.org/2000/svg" xmlns:xlink="http://www.w3.org/1999/xlink" x="0px" y="0px"
	 viewBox="0 0 106 106" style="enable-background:new 0 0 106 106;" xml:space="preserve">
<g>
	<path d="M88,96c-6.1,0-11.3-4.3-12.7-10H45.7c-1.4,5.7-6.5,10-12.7,10s-11.3-4.3-12.7-10H13c-1.7,0-3-1.3-3-3V63c0-1.7,1.3-3,3-3
		h57V43c0-1.7,1.3-3,3-3h20c7.2,0,13,5.8,13,13v30c0,1.7-1.3,3-3,3h-2.3C99.3,91.7,94.1,96,88,96z M81,83c0,3.9,3.1,7,7,7s7-3.1,7-7
		s-3.1-7-7-7S81,79.1,81,83z M26,83c0,3.9,3.1,7,7,7s7-3.1,7-7s-3.1-7-7-7S26,79.1,26,83z M45.7,80h29.7c1.4-5.7,6.5-10,12.7-10
		c5.4,0,10,3.3,12,8V53c0-3.9-3.1-7-7-7H76v17c0,1.7-1.3,3-3,3H16v14h4.3c1.4-5.7,6.5-10,12.7-10S44.3,74.3,45.7,80z M63,56H33
		c-1.7,0-3-1.3-3-3V23c0-1.7,1.3-3,3-3h30c1.7,0,3,1.3,3,3v30C66,54.7,64.7,56,63,56z M36,50h24V26H36V50z M23,56H3
		c-1.7,0-3-1.3-3-3V33c0-1.7,1.3-3,3-3h20c1.7,0,3,1.3,3,3v20C26,54.7,24.7,56,23,56z M6,50h14V36H6V50z M23,26H13c-1.7,0-3-1.3-3-3
		V13c0-1.7,1.3-3,3-3h10c1.7,0,3,1.3,3,3v10C26,24.7,24.7,26,23,26z M16,20h4v-4h-4V20z"/>
</g>
</svg>
