<?xml version="1.0" encoding="utf-8"?>
<!-- Generator: Adobe Illustrator 22.0.1, SVG Export Plug-In . SVG Version: 6.00 Build 0)  -->
<svg version="1.1" id="Слой_1" xmlns="http://www.w3.org/2000/svg" xmlns:xlink="http://www.w3.org/1999/xlink" x="0px" y="0px"
	 viewBox="0 0 106 106" style="enable-background:new 0 0 106 106;" xml:space="preserve">
<g>
	<path d="M53.1,106C23.8,106,0,82.2,0,53S23.8,0,53,0c7.7,0.1,15.4,2,22.3,5.3c1.5,0.7,2.1,2.5,1.4,4c-0.7,1.5-2.5,2.1-4,1.4
		C66.6,7.7,59.7,6.1,53,6C27.1,6,6,27.1,6,53c0,25.9,21.1,47,47,47c8.9-0.3,17.5-3,24.9-8.1c20.3-13.8,26.5-40.8,14.7-61.8
		L55.3,74.9c-0.5,0.6-1.3,1-2.2,1.1c-0.8,0-1.7-0.3-2.3-0.9l-25-25c-1.2-1.2-1.2-3.1,0-4.2c1.2-1.2,3.1-1.2,4.2,0l22.7,22.7
		l37.9-45.5c0.6-0.7,1.5-1.1,2.5-1.1c0.9,0,1.8,0.5,2.3,1.3c16.4,24.2,10,57.2-14.2,73.6C72.9,102.6,63.2,105.7,53.1,106z"/>
</g>
</svg>
