<?xml version="1.0" encoding="utf-8"?>
<!-- Generator: Adobe Illustrator 22.0.1, SVG Export Plug-In . SVG Version: 6.00 Build 0)  -->
<svg version="1.1" id="Слой_1" xmlns="http://www.w3.org/2000/svg" xmlns:xlink="http://www.w3.org/1999/xlink" x="0px" y="0px"
	 viewBox="0 0 106 106" style="enable-background:new 0 0 106 106;" xml:space="preserve">
<g>
	<path d="M103,106C103,106,103,106,103,106H83c-1.7,0-3-1.3-3-3s1.3-3,3-3h12.8L70.9,75.1c-1.2-1.2-1.2-3.1,0-4.2
		c1.2-1.2,3.1-1.2,4.2,0L100,95.8V83c0-1.7,1.3-3,3-3s3,1.3,3,3v20c0,0,0,0,0,0c0,0,0,0,0,0c0,0,0,0,0,0c0,0.4-0.1,0.8-0.2,1.1
		c-0.1,0.3-0.3,0.7-0.6,0.9c0,0,0,0,0,0c0,0,0,0,0,0c0,0,0,0-0.1,0.1c0,0,0,0,0,0c0,0,0,0,0,0c-0.3,0.3-0.6,0.5-0.9,0.6
		C103.8,105.9,103.4,106,103,106C103,106,103,106,103,106C103,106,103,106,103,106z M3,106C3,106,3,106,3,106C3,106,3,106,3,106
		c-0.4,0-0.8-0.1-1.1-0.2c-0.3-0.1-0.7-0.3-0.9-0.6l0,0c0,0,0,0,0,0c0,0,0,0-0.1-0.1c0,0,0,0,0,0c-0.3-0.3-0.5-0.6-0.6-0.9
		C0.1,103.8,0,103.4,0,103c0,0,0,0,0,0c0,0,0,0,0,0c0,0,0,0,0,0V83c0-1.7,1.3-3,3-3s3,1.3,3,3v12.8l24.9-24.9c1.2-1.2,3.1-1.2,4.2,0
		c1.2,1.2,1.2,3.1,0,4.2L10.2,100H23c1.7,0,3,1.3,3,3s-1.3,3-3,3H3C3,106,3,106,3,106z M73,36c-0.8,0-1.5-0.3-2.1-0.9
		c-1.2-1.2-1.2-3.1,0-4.2L95.8,6H83c-1.7,0-3-1.3-3-3s1.3-3,3-3h20c0,0,0,0,0,0c0,0,0,0,0,0c0,0,0,0,0,0c0.4,0,0.8,0.1,1.1,0.2
		c0.3,0.1,0.7,0.3,0.9,0.6c0,0,0,0,0,0c0,0,0,0,0.1,0.1c0,0,0,0,0,0l0,0c0.3,0.3,0.5,0.6,0.6,0.9c0.1,0.3,0.2,0.7,0.2,1.1
		c0,0,0,0,0,0c0,0,0,0,0,0v20c0,1.7-1.3,3-3,3s-3-1.3-3-3V10.2L75.1,35.1C74.5,35.7,73.8,36,73,36z M33,36c-0.8,0-1.5-0.3-2.1-0.9
		L6,10.2V23c0,1.7-1.3,3-3,3s-3-1.3-3-3V3c0,0,0,0,0,0c0,0,0,0,0,0c0-0.4,0.1-0.8,0.2-1.1c0.1-0.3,0.3-0.7,0.6-0.9c0,0,0,0,0,0
		c0,0,0,0,0.1-0.1c0,0,0,0,0,0c0.3-0.3,0.6-0.5,0.9-0.6C2.2,0.1,2.6,0,3,0c0,0,0,0,0,0c0,0,0,0,0,0h20c1.7,0,3,1.3,3,3s-1.3,3-3,3
		H10.2l24.9,24.9c1.2,1.2,1.2,3.1,0,4.2C34.5,35.7,33.8,36,33,36z"/>
</g>
</svg>
