<?xml version="1.0" encoding="utf-8"?>
<!-- Generator: Adobe Illustrator 22.0.1, SVG Export Plug-In . SVG Version: 6.00 Build 0)  -->
<svg version="1.1" id="Слой_1" xmlns="http://www.w3.org/2000/svg" xmlns:xlink="http://www.w3.org/1999/xlink" x="0px" y="0px"
	 viewBox="0 0 106 106" style="enable-background:new 0 0 106 106;" xml:space="preserve">
<g>
	<path d="M53,106c-21,0-38.5-15.1-42.3-35H0V35h10.7C14.5,15.1,32,0,53,0c22.8,0,41.5,17.9,42.9,40.3c5.8,1.3,10.1,6.5,10.1,12.7
		s-4.3,11.3-10.1,12.7C94.5,88.1,75.8,106,53,106z M22,83.2C28.6,93.3,40,100,53,100c20.4,0,37-16.6,37-37v-3h3c3.9,0,7-3.1,7-7
		s-3.1-7-7-7h-3v-3c0-3.9-3.1-7-7-7H73c-4,0-7.6-1.8-10-4.7c-2.4,2.9-6,4.7-10,4.7H23c-3.9,0-7,3.1-7,7v20c0,9.4,7.6,17,17,17h12.3
		c-0.2-0.6-0.3-1.3-0.3-2c0-4.4,3.6-8,8-8s8,3.6,8,8s-3.6,8-8,8H33C29,86,25.3,85,22,83.2z M53,76c-1.1,0-2,0.9-2,2s0.9,2,2,2
		c1.1,0,2-0.9,2-2S54.1,76,53,76z M6,65h4c0-0.7,0-1.3,0-2V43c0-0.7,0-1.3,0-2H6V65z M60,23h6c0,3.9,3.1,7,7,7h10c1.8,0,3.5,0.4,5,1
		C83,16.5,69.2,6,53,6S23,16.5,18,31c1.5-0.6,3.2-1,5-1h30C56.9,30,60,26.9,60,23z"/>
</g>
</svg>
