<?xml version="1.0" encoding="utf-8"?>
<!-- Generator: Adobe Illustrator 22.0.1, SVG Export Plug-In . SVG Version: 6.00 Build 0)  -->
<svg version="1.1" id="Слой_1" xmlns="http://www.w3.org/2000/svg" xmlns:xlink="http://www.w3.org/1999/xlink" x="0px" y="0px"
	 viewBox="0 0 106 106" style="enable-background:new 0 0 106 106;" xml:space="preserve">
<g>
	<path d="M93,106H3c-1.7,0-3-1.3-3-3V13c0-1.7,1.3-3,3-3h68.8c3.1-2.7,7-4.1,11.2-4.1c4.6,0,8.9,1.8,12.1,5
		c6.4,6.4,6.7,16.6,0.9,23.3V103C96,104.7,94.7,106,93,106z M6,100h84V40.2L45.1,85.1c-0.1,0.1-0.2,0.2-0.3,0.3c0,0,0,0,0,0
		c0,0,0,0,0,0c-0.1,0.1-0.2,0.1-0.3,0.2c0,0,0,0,0,0c0,0,0,0,0,0c-0.4,0.3-1,0.4-1.5,0.4c0,0,0,0,0,0c0,0,0,0,0,0s0,0,0,0
		c0,0,0,0,0,0c0,0,0,0,0,0h0c0,0,0,0,0,0c0,0,0,0,0,0l0,0H23c-1.7,0-3-1.3-3-3V63c0-0.8,0.3-1.5,0.9-2.1L65.8,16H6V100z M26,80h9.8
		L26,70.2V80z M37.2,73l5.8,5.8L88.8,33L73,17.2L27.2,63l5.8,5.8l27.9-27.9l4.2,4.2L37.2,73z M77.5,13.3l15.2,15.2
		c2.4-4.2,1.8-9.7-1.8-13.3C88.8,13,86,11.9,83,11.9C81.1,11.9,79.2,12.4,77.5,13.3z"/>
</g>
</svg>
