<?xml version="1.0" encoding="UTF-8" standalone="no"?>
<svg
   xmlns:dc="http://purl.org/dc/elements/1.1/"
   xmlns:cc="http://creativecommons.org/ns#"
   xmlns:rdf="http://www.w3.org/1999/02/22-rdf-syntax-ns#"
   xmlns:svg="http://www.w3.org/2000/svg"
   xmlns="http://www.w3.org/2000/svg"
   viewBox="0 0 533 390"
   height="390"
   width="533"
   version="1.1"
   id="svg3504">
  <metadata
     id="metadata3510">
    <rdf:RDF>
      <cc:Work
         rdf:about="">
        <dc:format>image/svg+xml</dc:format>
        <dc:type
           rdf:resource="http://purl.org/dc/dcmitype/StillImage" />
        <dc:title></dc:title>
      </cc:Work>
    </rdf:RDF>
  </metadata>
  <defs
     id="defs3508" />
  <path
     id="path3514"
     d="m 279.03863,339.07262 c -7.28139,-1.49001 -7.39111,-1.55983 -10.78237,-6.86122 -1.88437,-2.94574 -3.71248,-6.14224 -4.06247,-7.10333 -0.91122,-2.50225 -4.2709,-6.35066 -24.65083,-28.23676 -29.29692,-31.46211 -32.07519,-34.03949 -41.69508,-38.68005 -4.64916,-2.24272 -9.69051,-4.36816 -11.20301,-4.7232 -1.5125,-0.35505 -2.75,-1.2639 -2.75,-2.01969 0,-0.75579 5.32911,-6.98371 11.84247,-13.83982 13.8514,-14.5803 16.68719,-19.42099 15.86656,-27.08424 -0.55359,-5.16959 -3.91062,-14.0522 -5.7375,-15.18128 -1.34597,-0.83185 -1.28593,-0.50733 1.46571,7.92208 2.01816,6.18248 2.26217,8.10029 1.41911,11.15361 -1.11953,4.05461 -4.48089,7.64305 -9.85635,10.52222 -1.925,1.03105 -4.18987,2.44728 -5.03304,3.14717 -2.21888,1.8418 -19.29943,23.77724 -18.84754,24.20467 0.20932,0.19799 5.55558,2.68858 11.88058,5.53465 6.325,2.84606 13.975,7.00738 17,9.24739 5.50195,4.07417 35.9545,34.59505 35.98424,36.06496 0.009,0.42854 -3.92174,-1.84274 -8.73424,-5.04728 -8.90279,-5.92817 -13.43717,-8.31511 -23.25,-12.23899 -3.025,-1.20961 -6.4,-2.56529 -7.5,-3.01262 -1.1,-0.44733 -3.125,-1.08705 -4.5,-1.4216 -1.375,-0.33455 -4.975,-1.31182 -8,-2.17172 -7.29809,-2.07457 -17.40795,-4.14819 -28.89945,-5.92752 -7.53292,-1.16638 -20.98557,-1.42155 -67.744224,-1.28495 -32.08961,0.0937 -58.518881,-0.0197 -58.731711,-0.25201 -0.37794,-0.41263 27.070191,-37.33538 33.881251,-45.57646 8.59409,-10.39847 48.258294,-29.46129 99.494134,-47.81738 29.00377,-10.39109 28.63501,-10.75533 -2,-1.97549 -24.49291,7.01954 -40.28128,12.7087 -59.57333,21.46659 -25.305244,11.48765 -24.630754,11.22379 -23.526554,9.20373 0.51815,-0.9479 10.29276,-13.42345 21.721364,-27.72345 25.03237,-31.32166 45.70481,-52.67444 60.37852,-62.36558 7.8744,-5.20058 27.90747,-15.58944 42.83843,-22.215371 3.05362,-1.355109 1.17674,-1.474362 -22,-1.39784 -29.6005,0.09773 -34.4886,-0.370958 -37.0661,-3.554032 -1.01094,-1.248462 -1.67691,-2.764311 -1.47993,-3.368552 0.19698,-0.60424 2.7759,-2.794696 5.73095,-4.867679 7.92224,-5.557511 9.91536,-7.442782 16.93165,-16.015509 3.50418,-4.281513 8.64797,-9.456513 11.43065,-11.5 5.70613,-4.190342 2.63313,-3.934627 34.61435,-2.880378 9.625,0.317284 22.91401,1.115239 29.53113,1.773233 8.7738,0.87245 12.58606,0.899366 14.08078,0.09942 1.1273,-0.603316 5.50547,-2.290343 9.72927,-3.74895 7.20372,-2.487671 8.15924,-2.586174 15.41922,-1.589552 4.25678,0.584353 15.1646,3.559718 24.2396,6.611921 35.19489,11.837129 40.46876,13.373569 71,20.684495 9.33649,2.235689 23.62971,7.249161 27.01265,9.474919 3.07169,2.020975 3.79964,3.351169 5.79869,10.596104 1.25732,4.556751 2.60581,10.520541 2.99665,13.252861 0.71062,4.96785 0.71062,4.96785 5.70132,6.15544 12.3639,2.94215 15.99786,4.88682 16.95109,9.07117 1.07006,4.69714 2.71113,5.73199 12.0396,7.59207 12.80617,2.55353 24.79402,8.64891 35.75,18.17755 8.75,7.61006 8.75,7.61006 8.75,18.10432 0,22.65587 -5.42778,35.11385 -16.26425,37.33015 -2.98437,0.61037 -3.40349,1.22652 -5.86255,8.61858 -3.22715,9.70096 -8.51131,26.92627 -9.44651,30.79377 -0.79243,3.27706 -9.34205,12.22315 -21.21735,22.20128 -9.16372,7.69974 -17.71199,12.36351 -19.45904,10.61646 -0.7342,-0.7342 -0.74496,-1.46741 -0.0346,-2.35792 1.58461,-1.98644 7.94209,-18.82324 8.70067,-23.04238 0.37083,-2.0625 0.29754,-3.75 -0.16287,-3.75 -1.23232,0 -7.68014,6.98984 -18.60158,20.16528 -11.99434,14.46977 -18.43968,20.35649 -26.15194,23.88532 -13.82451,6.32556 -14.63068,4.66527 -4.39459,-9.0506 8.76001,-11.738 10.53266,-15.14871 12.34091,-23.74481 2.413,-11.47103 4.1203,-51.47823 2.71334,-63.582 -1.89247,-16.28052 -5.35894,-26.73493 -10.43748,-31.47804 -2.46785,-2.30485 -2.46785,-2.30485 -5.09887,2.18465 -4.03621,6.88727 -9.66,10.15286 -13.39863,7.78022 -0.70142,-0.44514 -2.30878,-5.02242 -3.57189,-10.17173 -2.29658,-9.36239 -2.29658,-9.36239 -4.72468,-4.97035 -2.66856,4.82698 -9.14184,9.89683 -12.70286,9.94884 -3.40738,0.0498 -4.5103,-4.07898 -5.1492,-19.2758 -0.11152,-2.65269 -1.81882,-1.13861 -2.56936,2.27858 -1.14645,5.21973 -9.25068,10.84085 -14.1776,9.83362 -1.44541,-0.29549 -1.76757,-1.15312 -1.53581,-4.08855 0.16133,-2.04305 -0.1277,-3.71463 -0.64226,-3.71463 -1.28807,0 -10.99229,10.63753 -14.64819,16.057 -1.64845,2.44365 -3.22345,4.668 -3.5,4.943 -1.6831,1.67369 -10.48948,19.58972 -11.31958,23.02898 -0.49139,2.03593 0.0161,3.02289 2.60319,5.06242 1.76747,1.39339 3.71614,2.83236 4.33037,3.19771 0.61424,0.36535 4.88924,3.7e-4 9.5,-0.81105 11.24937,-1.97973 18.47642,-1.84593 23.4993,0.43506 4.48931,2.03867 8.8338,7.00647 9.91446,11.33688 1.42623,5.71519 5.70359,1.39162 7.06865,-7.14503 1.02305,-6.39775 3.11803,-5.10021 5.48153,3.39503 2.08209,7.48376 1.79234,37.38961 -0.47587,49.11567 -1.71966,8.89021 -4.51478,15.38433 -6.62155,15.38433 -0.57534,0 -1.2039,-0.5625 -1.39678,-1.25 -2.35982,-8.411 -3.42576,-11.24863 -6.47984,-17.25 -6.09686,-11.98054 -16.77708,-20.54859 -25.53483,-20.48494 -5.36342,0.039 -14.2881,4.68457 -19.20153,9.99503 -7.7287,8.35324 -10.40137,16.44259 -8.33911,25.23991 0.67688,2.8875 1.66902,5.80304 2.20474,6.47899 1.49754,1.88949 4.44281,-0.179 6.7811,-4.76243 1.11297,-2.18161 2.71103,-3.96656 3.55123,-3.96656 2.14689,0 6.08171,4.74218 7.99896,9.64022 1.98956,5.08277 1.26639,6.74323 -4.98995,11.45739 -4.49006,3.38325 -5.50449,5.21132 -3.55906,6.41366 1.89512,1.17125 7.74815,-3.51238 12.53171,-10.02796 6.31224,-8.59774 9.59779,-8.43692 12.66817,0.62009 2.09217,6.17149 1.40367,8.78813 -3.96723,15.07746 -3.58321,4.19594 -4.18803,5.38873 -2.86427,5.6487 2.47463,0.48598 13.22525,-10.36728 15.33121,-15.47759 0.98019,-2.37853 2.31595,-4.53061 2.96835,-4.7824 2.98149,-1.15073 12.31382,10.33737 12.31382,15.15833 0,1.28498 -2.45617,5.80938 -5.45815,10.05422 -9.08952,12.8527 -8.93687,12.73461 -19.04185,14.73034 -4.95,0.97763 -13.99871,3.73726 -20.10825,6.13252 -12.08629,4.73846 -12.44366,4.77792 -23.24799,2.56701 z M 456.85017,234.36063 c 4.06819,-10.87094 7.95227,-26.7005 8.00957,-32.64301 0.0234,-2.43133 -0.49379,-3.84598 -1.55511,-4.25325 -2.21546,-0.85015 -3.12198,-0.0848 -5.58358,4.71411 -1.79443,3.49825 -2.26259,6.71684 -2.86288,19.68215 -0.39471,8.525 -1.22292,16.76679 -1.84047,18.3151 -0.61756,1.5483 -1.12283,3.11093 -1.12283,3.47251 0,1.62744 2.91567,-3.83733 4.9553,-9.28761 z m -20.83502,-6.20299 c 3.50041,-7.59992 8.22152,-32.40415 8.31462,-43.68419 0.0617,-7.47505 -0.0787,-7.99483 -2.68762,-9.94728 -4.93944,-3.69662 -5.28333,-2.11911 -4.93562,22.64113 0.28337,20.17826 0.12325,22.79835 -1.76345,28.85678 -1.40812,4.52166 -3.19576,7.7841 -5.56166,10.15 -4.62615,4.62615 -4.50043,6.04099 0.14508,1.63272 1.9974,-1.89539 4.91729,-6.23752 6.48865,-9.64916 z M 278.99311,184.867 c 9.29258,-10.18377 12.90176,-15.32308 12.90176,-18.37154 0,-0.80547 2.1375,-3.04436 4.75,-4.9753 2.6125,-1.93095 6.775,-5.64835 9.25,-8.2609 4.5,-4.75009 4.5,-4.75009 0,-1.37608 -12.57514,9.42858 -28.75308,27.81026 -39.34771,44.70758 -3.41889,5.45278 -3.33526,6.7722 0.14467,2.28242 1.48667,-1.91809 7.02225,-8.22088 12.30128,-14.00618 z m 9.40176,-33.6901 c 3.3,-1.80109 9.41853,-4.39339 13.59674,-5.76066 7.27505,-2.3807 8.82065,-2.49803 36.5,-2.77079 15.89679,-0.15665 32.05326,0.10305 35.90326,0.57712 10.02451,1.23437 7.17291,-0.47116 -6.5,-3.8876 -11.43201,-2.85651 -11.68328,-2.87346 -42.5,-2.86703 -21.9153,0.005 -32.90486,0.39765 -37.5,1.34133 -7.91442,1.62534 -9.557,2.76075 -3.82008,2.64057 3.23475,-0.0678 4.34036,0.31532 4.59961,1.59371 0.4048,1.99617 -5.40087,8.05519 -15.52953,16.20722 -3.9875,3.20932 -7.25,6.01253 -7.25,6.22935 0,0.21682 3.7125,-1.9509 8.25,-4.81715 4.5375,-2.86625 10.95,-6.68499 14.25,-8.48607 z m -56.18275,0.18373 c 3.23696,-6.45276 4.20496,-10.542 3.82812,-16.1716 -0.0809,-1.20884 -3.30001,-5.42061 -7.26093,-9.5 -8.79188,-9.05487 -12.39625,-16.07764 -11.5227,-22.45088 0.71337,-5.204612 2.83354,-9.635312 6.77693,-14.16231 4.80044,-5.510889 3.70963,-6.845636 -2.04428,-2.501452 -4.89212,3.693535 -6.01036,4.842715 -10.32912,10.614908 -6.98815,9.339944 -6.06815,14.913834 3.84572,23.299634 15.16922,12.83112 17.38901,15.64701 17.38901,22.05858 0,1.85878 -1.06672,5.50215 -2.37049,8.09636 -1.30377,2.59422 -2.70435,5.84176 -3.1124,7.21676 -1.22078,4.1137 0.95144,1.17224 4.80014,-6.5 z M 364.20526,98.781 c -4.53805,-9.096738 -11.13728,-11.920364 -27.85961,-11.920364 -8.99499,0 -12.22183,1.087696 -7.06589,2.381753 2.18097,0.547389 4.58476,2.038871 16.00466,9.930431 3.45532,2.38775 4.81433,2.68782 12.17335,2.68782 8.28381,0 8.28381,0 6.74749,-3.07964 z M 204.39487,82.478834 c 8.25131,-1.626034 9.84856,-2.22505 22.4283,-8.411235 9.5717,-4.706963 9.5717,-4.706963 3.0717,-5.016513 -14.36336,-0.684027 -31.91237,2.630507 -50.75,9.5853 -7.09711,2.62023 -9.4755,4.318828 -5,3.57089 1.79661,-0.300246 20.76136,0.960389 22.75,1.51225 0.275,0.07631 3.65,-0.481997 7.5,-1.240692 z"
     style="fill:#000000" />
</svg>
